<svg fill="#777777" xmlns="http://www.w3.org/2000/svg" xmlns:xlink="http://www.w3.org/1999/xlink" version="1.1" x="0px" y="0px" viewBox="0 0 100 100" enable-background="new 0 0 100 100" xml:space="preserve"><path d="M79.495,76.812L60.747,58.086c3.439-4.037,5.527-9.258,5.527-14.962c0-12.759-10.389-23.137-23.159-23.137  S19.956,30.366,19.956,43.124c0,12.755,10.389,23.134,23.159,23.134c5.711,0,10.937-2.086,14.979-5.522l18.749,18.728  c0.366,0.366,0.846,0.549,1.326,0.549c0.48,0,0.959-0.183,1.326-0.549C80.227,78.731,80.227,77.545,79.495,76.812z M43.115,62.508  c-10.703,0-19.409-8.694-19.409-19.384s8.707-19.387,19.409-19.387s19.409,8.698,19.409,19.387S53.818,62.508,43.115,62.508z"></path></svg>